<svg width="46" height="46" viewBox="0 0 46 46" fill="none" xmlns="http://www.w3.org/2000/svg">
<mask id="mask0_91_17" style="mask-type:alpha" maskUnits="userSpaceOnUse" x="0" y="0" width="46" height="46">
<rect x="0.5" y="0.5" width="45" height="45" fill="#D9D9D9"/>
</mask>
<g mask="url(#mask0_91_17)">
<path d="M8 38C6.96875 38 6.08594 37.6328 5.35156 36.8984C4.61719 36.1641 4.25 35.2813 4.25 34.25V11.75C4.25 10.7187 4.61719 9.83594 5.35156 9.10156C6.08594 8.36719 6.96875 8 8 8H38C39.0313 8 39.9141 8.36719 40.6484 9.10156C41.3828 9.83594 41.75 10.7187 41.75 11.75V34.25C41.75 35.2813 41.3828 36.1641 40.6484 36.8984C39.9141 37.6328 39.0313 38 38 38H8ZM23 24.875L8 15.5V34.25H38V15.5L23 24.875ZM23 21.125L38 11.75H8L23 21.125ZM8 15.5V11.75V34.25V15.5Z" fill="#FFE668"/>
</g>
</svg>
